# xmcd
#
# Track frame offsets:
#	150
#	3420
#	16302
#	28727
#	42327
#	57362
#	66237
#	79240
#	88967
#	102697
#	115932
#	130117
#	142337
#	151760
#	165625
#	178967
#	193609
#
# Disc length: 2747 seconds
#
# Revision: 0
# Processed by: cddbd v1.5.2PL0 Copyright (c) Steve Scherf et al.
# Submitted via: EasyCDDAExtractor 16.0.1.1
#
DISCID=f20ab911
DTITLE=Paul Craft - Brother Jukebox
DYEAR=1998
DGENRE=Country
TTITLE0=Chet Atkins Voice Mail Liner Notes
TTITLE1=Blue Heartache
TTITLE2=Brother Jukebox
TTITLE3=Throught The Bottom Of The Glass
TTITLE4=Raised By The Railroad Line
TTITLE5=Take Another Swing At Me
TTITLE6=My Own Sweet Time
TTITLE7=Jealous
TTITLE8=Teardrops Will Kiss The Morning Dew
TTITLE9=Hank Williams, You Wrote My Life
TTITLE10=Ancient History
TTITLE11=Ashley Judd
TTITLE12=More Love Than I Know What To Do With
TTITLE13=We Know Better
TTITLE14=Midnight Flyer
TTITLE15=Walkin' Home In The Rain
TTITLE16=Fallin' Out With The Blues
EXTD=
EXTT0=
EXTT1=
EXTT2=
EXTT3=
EXTT4=
EXTT5=
EXTT6=
EXTT7=
EXTT8=
EXTT9=
EXTT10=
EXTT11=
EXTT12=
EXTT13=
EXTT14=
EXTT15=
EXTT16=
PLAYORDER=
